<svg width="30" height="53" viewBox="0 0 53 53" fill="none" xmlns="http://www.w3.org/2000/svg">
<path d="M23.5469 0.426476C17.5176 1.16476 12.2143 3.73643 7.96914 7.96925C4.00703 11.9314 1.60762 16.5948 0.574023 22.378C0.364844 23.5101 0.352539 24.6544 0.352539 36.2208V48.8331L0.746289 49.6698C1.26309 50.765 2.23516 51.737 3.33027 52.2538L4.16699 52.6476L15.9795 52.6845C23.9529 52.7091 28.235 52.6845 29.1455 52.586C31.791 52.3276 34.1166 51.737 36.6145 50.6911C43.8865 47.6642 49.4975 41.3765 51.6754 33.8214C52.4752 31.0651 52.6352 29.8839 52.6352 26.5001C52.6352 23.953 52.5859 23.264 52.3645 22.0704C50.8018 13.5925 45.5969 6.65265 38.0049 2.93663C35.5932 1.75538 33.4152 1.06632 30.6836 0.598743C29.3055 0.35265 24.925 0.254211 23.5469 0.426476ZM28.358 5.58214C36.8113 6.40655 43.7635 11.9314 46.4213 19.9048C47.1842 22.2058 47.4549 23.9161 47.4549 26.5001C47.4549 29.0841 47.1842 30.7944 46.4213 33.0954C44.0588 40.1952 38.0418 45.5847 30.8312 47.0366C28.5672 47.5042 27.3613 47.5411 16.2748 47.5411H5.45898V36.7253C5.45898 25.6265 5.5082 24.3468 5.96348 22.1566C8.1168 11.8329 17.9359 4.56085 28.358 5.58214Z" fill="white"/>
<path d="M18.0221 21.3321C17.3945 21.4798 16.644 22.0704 16.324 22.6733C15.5981 24.0638 16.3733 25.9587 17.8498 26.3647C18.502 26.5493 34.5104 26.5493 35.1502 26.3647C35.4086 26.2909 35.8393 26.0448 36.0977 25.811C37.4266 24.6052 37.1682 22.4642 35.6055 21.5782L35.0518 21.2706L26.7461 21.246C22.1811 21.2337 18.2559 21.2706 18.0221 21.3321Z" fill="white"/>
<path d="M17.333 32.1479C15.5981 33.1445 15.6104 35.667 17.3699 36.6268L17.9852 36.959H22.5748H27.1768L27.8043 36.5898C28.3088 36.3068 28.518 36.0854 28.7641 35.5809C29.4039 34.2889 29.0102 32.8369 27.8043 32.1602L27.1768 31.791H22.5625H17.9482L17.333 32.1479Z" fill="white"/>
</svg>
