<svg width="42" height="42" viewBox="0 0 42 42" fill="none" xmlns="http://www.w3.org/2000/svg">
<path d="M37.4218 0.0581665C37.1671 0.102463 35.1739 0.789021 32.9924 1.58632C29.4932 2.84869 17.4452 7.21166 5.8512 11.3975C3.70293 12.1837 1.72077 12.9588 1.45501 13.136C-0.283534 14.2876 -0.505004 16.9896 1.01207 18.4845C1.29998 18.7724 3.86904 20.3116 8.16556 22.7921L14.865 26.6678L18.7297 33.3673C21.2323 37.6971 22.7605 40.2329 23.0484 40.5208C23.746 41.2295 24.4326 41.5063 25.4845 41.5063C26.2043 41.5063 26.4812 41.4621 26.9905 41.2295C27.7657 40.8641 28.3747 40.2661 28.6959 39.5353C29.161 38.5054 41.3861 4.58724 41.4747 4.06678C41.9066 1.77456 39.714 -0.384773 37.4218 0.0581665ZM35.949 5.67244C35.949 5.92713 25.3406 35.0505 25.252 35.0394C25.1966 35.0283 23.89 32.8469 22.3507 30.2003L19.5491 25.3722L24.0228 20.8764C26.4922 18.407 28.5851 16.2255 28.6848 16.0373C29.4932 14.4205 28.3304 12.5491 26.5255 12.5602C25.6506 12.5712 25.3184 12.8481 20.6676 17.499L16.1717 21.9837L11.3215 19.1711C8.6528 17.6208 6.46024 16.3252 6.46024 16.2809C6.43809 16.1923 35.5172 5.61707 35.8161 5.59493C35.8826 5.58385 35.949 5.62815 35.949 5.67244Z" fill="white"/>
</svg>
