<svg width="120" height="120" viewBox="0 0 120 120" fill="none" xmlns="http://www.w3.org/2000/svg">
<path d="M80.9289 21C66.8214 21 64.0001 29.8521 64.0001 35.8521V45.9553V56.0585C32.5 31 28.5 21 20 21C5.5 21 2.99996 27.8522 3 35.8521V101.706C3 107.206 5.46902 116.558 20.9869 116.558C35.0944 116.558 37.9157 107.706 37.9157 101.706V81.4999C52 96 70.5 116 81 116C96.5 116 98.9158 106.5 98.9158 100.558V35.8521C98.9158 30.3521 96.4468 21 80.9289 21Z" stroke="#FDFEFF" strokeWidth="5"/>
<path d="M81 116C96 116 98.9158 106.5 98.9158 100.558V67.5C96.5 72 94 74.5 90.5 74.5C84 74.5 78.5 67.5 64.0001 56.0585C35 31 28.5 21 20 21C5.5 21 2.99996 27.8522 3 35.8521V69C5.5 65 7 62 12.5 62C23 62 66 116 81 116Z" fill="#FDFEFF" stroke="#FDFEFF" strokeWidth="5"/>
<path d="M90 12.2559C105.067 12.7328 107.277 23.1066 107.685 29.0927" stroke="#FDFEFF" strokeWidth="5" strokeLinecap="round"/>
<path d="M90 2.70947C112.97 3.48962 116.364 19.6735 117 29.0103" stroke="#FDFEFF" strokeWidth="5" strokeLinecap="round"/>
</svg>
