<svg width="289" height="294" viewBox="0 0 289 294" fill="none" xmlns="http://www.w3.org/2000/svg">
<path d="M6.66675 39.38V251.654C6.66675 265.806 18.1925 284.001 52.163 284.001C86.1335 284.001 102.715 263.784 102.715 251.654V175.842C98.6697 167.755 188.685 281.203 235.159 282.99C261.445 284.001 281.667 267.828 281.667 251.654V47.4666C281.667 36.3475 274.589 10.0659 230.104 10.0659C189.663 10.0659 181.575 34.9997 181.575 47.4666V114.181C182.585 118.225 79.4607 11.0767 66.3173 7.03336C53.174 2.99001 38.0086 2.99003 28.9093 7.03336C19.6705 11.1387 6.66675 25.0067 6.66675 39.38Z" stroke="white" stroke-width="5"/>
<g filter="url(#filter0_d_142_67)">
<path d="M181.575 113.904C163.376 98.78 85.0001 12.8587 70.8334 7.02532C56.6667 1.19191 40.8334 2.33401 28.9093 7.0255C19.5053 10.7255 6.66675 24.9537 6.66675 39.2909V130.037L23.8256 117.361C29.6874 113.031 37.8134 113.54 43.0884 118.569L102.715 175.41C119.902 192.551 188.527 281.217 235 283C261.286 284.008 281.667 274.5 281.667 248V154.236L269.229 170.022C263.903 176.783 253.992 177.684 247.533 171.996L181.575 113.904Z" fill="#FDFEFF"/>
<path d="M181.575 113.904C163.376 98.78 85.0001 12.8587 70.8334 7.02532C56.6667 1.19191 40.8334 2.33401 28.9093 7.0255C19.5053 10.7255 6.66675 24.9537 6.66675 39.2909V130.037L23.8256 117.361C29.6874 113.031 37.8134 113.54 43.0884 118.569L102.715 175.41C119.902 192.551 188.527 281.217 235 283C261.286 284.008 281.667 274.5 281.667 248V154.236L269.229 170.022C263.903 176.783 253.992 177.684 247.533 171.996L181.575 113.904Z" stroke="white" stroke-width="5"/>
</g>
<defs>
<filter id="filter0_d_142_67" x="0.166748" y="0.566895" width="288" height="293.005" filterUnits="userSpaceOnUse" color-interpolation-filters="sRGB">
<feFlood flood-opacity="0" result="BackgroundImageFix"/>
<feColorMatrix in="SourceAlpha" type="matrix" values="0 0 0 0 0 0 0 0 0 0 0 0 0 0 0 0 0 0 127 0" result="hardAlpha"/>
<feOffset dy="4"/>
<feGaussianBlur stdDeviation="2"/>
<feComposite in2="hardAlpha" operator="out"/>
<feColorMatrix type="matrix" values="0 0 0 0 0 0 0 0 0 0 0 0 0 0 0 0 0 0 0.25 0"/>
<feBlend mode="normal" in2="BackgroundImageFix" result="effect1_dropShadow_142_67"/>
<feBlend mode="normal" in="SourceGraphic" in2="effect1_dropShadow_142_67" result="shape"/>
</filter>
</defs>
</svg>
